<svg xmlns="http://www.w3.org/2000/svg" viewBox="0 0 200 200" width="200" height="200">
<defs>
  <radialGradient id="g_hydra" cx="35%" cy="30%" r="75%">
    <stop offset="0%" stop-color="#dbd8d5"/>
    <stop offset="45%" stop-color="#b0aaa3"/>
    <stop offset="100%" stop-color="#4f4c49"/>
  </radialGradient>
  <radialGradient id="sh_hydra" cx="50%" cy="50%" r="50%">
    <stop offset="70%" stop-color="#000" stop-opacity="0"/>
    <stop offset="100%" stop-color="#000" stop-opacity="0.45"/>
  </radialGradient>
</defs>
<clipPath id="c_hydra"><circle cx="100" cy="100" r="80"/></clipPath>
<g>

<circle cx="100" cy="100" r="80" fill="url(#g_hydra)"/>
<g clip-path="url(#c_hydra)"><circle cx="61.7" cy="65.7" r="9.4" fill="#696661" opacity="0.27"/><circle cx="95.8" cy="39.0" r="3.2" fill="#696661" opacity="0.18"/><circle cx="143.8" cy="85.0" r="10.2" fill="#696661" opacity="0.12"/><circle cx="82.6" cy="103.2" r="7.4" fill="#696661" opacity="0.20"/><circle cx="115.6" cy="101.2" r="5.2" fill="#696661" opacity="0.26"/><circle cx="101.1" cy="89.5" r="9.4" fill="#696661" opacity="0.12"/><circle cx="93.3" cy="94.4" r="3.0" fill="#696661" opacity="0.26"/><circle cx="103.9" cy="113.8" r="10.9" fill="#696661" opacity="0.26"/><circle cx="83.1" cy="161.8" r="7.3" fill="#696661" opacity="0.22"/><circle cx="119.0" cy="159.8" r="8.5" fill="#696661" opacity="0.27"/><circle cx="116.9" cy="87.7" r="5.9" fill="#696661" opacity="0.13"/><circle cx="102.9" cy="103.4" r="5.4" fill="#696661" opacity="0.21"/><circle cx="148.8" cy="101.0" r="5.7" fill="#696661" opacity="0.16"/><circle cx="114.4" cy="71.1" r="5.5" fill="#696661" opacity="0.19"/><circle cx="98.8" cy="96.4" r="10.8" fill="#696661" opacity="0.10"/><circle cx="99.9" cy="44.0" r="3.1" fill="#696661" opacity="0.24"/></g>
<circle cx="100" cy="100" r="80" fill="url(#sh_hydra)"/>

</g>
</svg>