<svg xmlns="http://www.w3.org/2000/svg" viewBox="0 0 200 200" width="200" height="200">
<defs>
  <radialGradient id="g_mars" cx="35%" cy="30%" r="75%">
    <stop offset="0%" stop-color="#e3aa92"/>
    <stop offset="45%" stop-color="#c1440e"/>
    <stop offset="100%" stop-color="#561e06"/>
  </radialGradient>
  <radialGradient id="sh_mars" cx="50%" cy="50%" r="50%">
    <stop offset="70%" stop-color="#000" stop-opacity="0"/>
    <stop offset="100%" stop-color="#000" stop-opacity="0.45"/>
  </radialGradient>
</defs>
<clipPath id="c_mars"><circle cx="100" cy="100" r="80"/></clipPath>
<g>

<circle cx="100" cy="100" r="80" fill="url(#g_mars)"/>
<g clip-path="url(#c_mars)"><circle cx="113.6" cy="106.6" r="5.4" fill="#732808" opacity="0.26"/><circle cx="48.2" cy="101.1" r="3.8" fill="#732808" opacity="0.19"/><circle cx="120.8" cy="71.1" r="10.6" fill="#732808" opacity="0.26"/><circle cx="100.0" cy="100.0" r="9.0" fill="#732808" opacity="0.12"/><circle cx="152.5" cy="102.9" r="9.7" fill="#732808" opacity="0.25"/><circle cx="113.9" cy="96.1" r="3.7" fill="#732808" opacity="0.12"/><circle cx="108.0" cy="99.0" r="4.3" fill="#732808" opacity="0.10"/><circle cx="102.6" cy="100.8" r="5.8" fill="#732808" opacity="0.13"/><circle cx="75.5" cy="157.3" r="4.3" fill="#732808" opacity="0.25"/><circle cx="97.0" cy="62.4" r="7.6" fill="#732808" opacity="0.24"/><circle cx="85.9" cy="92.1" r="5.6" fill="#732808" opacity="0.14"/><circle cx="42.3" cy="138.2" r="6.4" fill="#732808" opacity="0.11"/><circle cx="42.1" cy="107.8" r="6.6" fill="#732808" opacity="0.23"/><circle cx="103.8" cy="102.2" r="8.3" fill="#732808" opacity="0.11"/><circle cx="91.1" cy="124.1" r="4.5" fill="#732808" opacity="0.11"/><circle cx="168.5" cy="102.7" r="8.5" fill="#732808" opacity="0.27"/><circle cx="31.4" cy="103.3" r="9.9" fill="#732808" opacity="0.21"/><circle cx="63.8" cy="94.7" r="4.8" fill="#732808" opacity="0.17"/><circle cx="97.6" cy="87.3" r="9.8" fill="#732808" opacity="0.19"/><circle cx="53.1" cy="66.9" r="8.2" fill="#732808" opacity="0.12"/><circle cx="100.0" cy="100.1" r="3.2" fill="#732808" opacity="0.27"/><circle cx="41.8" cy="64.6" r="9.2" fill="#732808" opacity="0.16"/><circle cx="148" cy="68" r="4" fill="#872f09" opacity="0.5"/><circle cx="102" cy="116" r="8" fill="#872f09" opacity="0.5"/><circle cx="61" cy="101" r="8" fill="#872f09" opacity="0.5"/><circle cx="51" cy="70" r="4" fill="#872f09" opacity="0.5"/><circle cx="49" cy="59" r="7" fill="#872f09" opacity="0.5"/><circle cx="144" cy="138" r="9" fill="#872f09" opacity="0.5"/><circle cx="92" cy="130" r="6" fill="#872f09" opacity="0.5"/><circle cx="134" cy="123" r="6" fill="#872f09" opacity="0.5"/><circle cx="115" cy="141" r="8" fill="#872f09" opacity="0.5"/><circle cx="57" cy="70" r="7" fill="#872f09" opacity="0.5"/></g>
<circle cx="100" cy="100" r="80" fill="url(#sh_mars)"/>

</g>
</svg>