<svg xmlns="http://www.w3.org/2000/svg" viewBox="0 0 200 200" width="200" height="200">
<defs>
  <radialGradient id="g_mercury" cx="35%" cy="30%" r="75%">
    <stop offset="0%" stop-color="#d1ccc8"/>
    <stop offset="45%" stop-color="#9a8f86"/>
    <stop offset="100%" stop-color="#45403c"/>
  </radialGradient>
  <radialGradient id="sh_mercury" cx="50%" cy="50%" r="50%">
    <stop offset="70%" stop-color="#000" stop-opacity="0"/>
    <stop offset="100%" stop-color="#000" stop-opacity="0.45"/>
  </radialGradient>
</defs>
<clipPath id="c_mercury"><circle cx="100" cy="100" r="80"/></clipPath>
<g>

<circle cx="100" cy="100" r="80" fill="url(#g_mercury)"/>
<g clip-path="url(#c_mercury)"><circle cx="160.8" cy="71.4" r="10.1" fill="#5c5550" opacity="0.12"/><circle cx="74.5" cy="84.7" r="7.2" fill="#5c5550" opacity="0.12"/><circle cx="111.4" cy="127.5" r="4.8" fill="#5c5550" opacity="0.18"/><circle cx="106.1" cy="100.9" r="8.7" fill="#5c5550" opacity="0.18"/><circle cx="47.3" cy="96.1" r="5.9" fill="#5c5550" opacity="0.11"/><circle cx="108.8" cy="61.8" r="8.3" fill="#5c5550" opacity="0.21"/><circle cx="125.7" cy="95.6" r="9.1" fill="#5c5550" opacity="0.17"/><circle cx="57.2" cy="80.9" r="5.5" fill="#5c5550" opacity="0.12"/><circle cx="49.0" cy="107.7" r="7.7" fill="#5c5550" opacity="0.18"/><circle cx="91.8" cy="90.6" r="4.4" fill="#5c5550" opacity="0.16"/><circle cx="105.7" cy="88.1" r="3.9" fill="#5c5550" opacity="0.12"/><circle cx="119.2" cy="104.4" r="7.6" fill="#5c5550" opacity="0.25"/><circle cx="87.1" cy="121.4" r="5.3" fill="#5c5550" opacity="0.15"/><circle cx="106.8" cy="64.2" r="5.1" fill="#5c5550" opacity="0.12"/><circle cx="110.7" cy="54.2" r="9.6" fill="#5c5550" opacity="0.14"/><circle cx="36.5" cy="82.8" r="7.7" fill="#5c5550" opacity="0.27"/><circle cx="134.9" cy="156.1" r="3.4" fill="#5c5550" opacity="0.17"/><circle cx="157.7" cy="107.8" r="8.5" fill="#5c5550" opacity="0.28"/><circle cx="123.1" cy="40.9" r="7.3" fill="#5c5550" opacity="0.28"/><circle cx="99.8" cy="77.1" r="10.8" fill="#5c5550" opacity="0.17"/><circle cx="101.9" cy="104.7" r="6.7" fill="#5c5550" opacity="0.14"/><circle cx="162.6" cy="74.5" r="4.7" fill="#5c5550" opacity="0.12"/></g>
<circle cx="100" cy="100" r="80" fill="url(#sh_mercury)"/>

</g>
</svg>